<?xml version="1.0" encoding="iso-8859-1"?>
<svg version="1.1" id="Capa_1" xmlns="http://www.w3.org/2000/svg" xmlns:xlink="http://www.w3.org/1999/xlink" x="0px" y="0px"
	 width="575.284px" height="575.284px" viewBox="0 0 575.284 575.284" style="enable-background:new 0 0 575.284 575.284;"
	 xml:space="preserve">
<g>
	<path d="M561.997,130.569L451.493,94.266c-0.012-0.012-0.023-0.012-0.049-0.012h0.012c0,0-1.762-0.673-4.246-0.416
		c-2.484,0.269-4.236,1.554-4.236,1.554l-61.945,40.454c-2.803,1.824-4.492,4.945-4.492,8.311v110.809l-3.428-0.257V75.71
		c0-4.296-2.754-8.091-6.818-9.425L165.971,0.483c0,0-2.313-0.734-4.456-0.392c-2.57,0.416-4.443,1.775-4.443,1.775L10.645,106.298
		c-2.619,1.86-4.174,4.859-4.174,8.078v370.726c0,3.623,1.983,6.952,5.153,8.69l146.476,80.27c0,0,1.518,0.894,3.599,1.15
		c2.081,0.245,3.599-0.208,3.599-0.208l200.32-50.575l85.215-21.506l110.479-27.896c4.393-1.102,7.479-5.067,7.479-9.608
		l0.023-325.412C568.827,135.698,566.059,131.904,561.997,130.569z M36.361,438.271c0,1.077-0.526,2.094-1.408,2.705
		c-0.563,0.393-1.224,0.601-1.885,0.601c-0.392,0-0.771-0.062-1.151-0.208l-8.556-3.146c-1.297-0.477-2.167-1.726-2.167-3.108
		v-27.21c0-1.028,0.49-2.007,1.297-2.632c0.82-0.636,1.897-0.832,2.889-0.562l8.556,2.374c1.42,0.404,2.412,1.714,2.412,3.195
		v27.992H36.361z M36.361,382.298c0,0.979-0.429,1.909-1.2,2.546c-0.6,0.489-1.334,0.759-2.105,0.759
		c-0.208,0-0.404-0.024-0.612-0.062l-8.556-1.604c-1.567-0.294-2.705-1.665-2.705-3.256V353.46c0-0.93,0.392-1.812,1.089-2.448
		c0.698-0.624,1.616-0.93,2.546-0.832l8.556,0.832c1.689,0.172,2.975,1.592,2.975,3.293v27.993H36.361z M36.361,326.336
		c0,0.882-0.343,1.738-0.967,2.351c-0.624,0.611-1.457,0.954-2.325,0.954c-0.012,0-0.024,0-0.024,0l-8.556-0.061
		c-1.812-0.024-3.292-1.493-3.292-3.317v-27.21c0-1.726,1.322-3.157,3.036-3.292l8.556-0.71c0.93-0.086,1.824,0.232,2.509,0.856
		c0.686,0.637,1.065,1.506,1.065,2.436V326.336z M36.361,270.375c0,1.604-1.163,2.974-2.742,3.256l-8.556,1.481
		c-0.196,0.037-0.379,0.049-0.563,0.049c-0.783,0-1.53-0.269-2.129-0.771c-0.747-0.637-1.188-1.555-1.188-2.546v-27.209
		c0-1.506,1.016-2.803,2.46-3.195l8.556-2.264c1.003-0.257,2.056-0.037,2.864,0.587c0.808,0.624,1.273,1.591,1.273,2.619v27.993
		H36.361z M36.361,214.414c0,1.396-0.881,2.656-2.203,3.121l-8.556,3.023c-0.354,0.123-0.722,0.184-1.102,0.184
		c-0.685,0-1.346-0.208-1.909-0.6c-0.869-0.625-1.396-1.628-1.396-2.705v-27.222c0-1.297,0.771-2.484,1.971-3.023l8.556-3.794
		c1.016-0.453,2.203-0.355,3.146,0.257c0.93,0.625,1.493,1.665,1.493,2.779V214.414z M36.361,158.452
		c0,1.236-0.673,2.338-1.75,2.926l-8.556,4.553c-0.49,0.257-1.028,0.392-1.555,0.392c-0.6,0-1.187-0.171-1.713-0.478
		c-0.992-0.6-1.604-1.665-1.604-2.828v-27.209c0-1.15,0.587-2.215,1.555-2.803l8.556-5.336c1.028-0.637,2.301-0.673,3.354-0.086
		c1.053,0.587,1.702,1.689,1.702,2.889v27.98H36.361z M65.211,448.883c0,1.077-0.526,2.093-1.408,2.705
		c-0.563,0.392-1.236,0.6-1.897,0.6c-0.379,0-0.759-0.061-1.139-0.208l-10.196-3.758c-1.297-0.477-2.167-1.713-2.167-3.097v-29.669
		c0-1.028,0.478-1.995,1.297-2.632c0.82-0.624,1.885-0.82,2.889-0.551l10.184,2.84c1.432,0.392,2.423,1.701,2.423,3.182v30.588
		H65.211z M65.211,387.72c0,0.979-0.44,1.909-1.2,2.546c-0.6,0.489-1.346,0.759-2.117,0.759c-0.208,0-0.404-0.024-0.612-0.062
		l-10.184-1.909c-1.567-0.294-2.705-1.664-2.705-3.256v-29.657c0-0.931,0.392-1.824,1.089-2.448c0.71-0.624,1.628-0.93,2.546-0.845
		l10.196,0.992c1.702,0.171,2.987,1.591,2.987,3.305V387.72z M65.211,326.568c0,0.869-0.343,1.727-0.979,2.338
		c-0.625,0.612-1.457,0.955-2.326,0.955c0,0-0.012,0-0.024,0l-10.184-0.073c-1.812-0.013-3.292-1.493-3.292-3.317v-29.646
		c0-1.726,1.31-3.157,3.036-3.305l10.196-0.832c0.918-0.086,1.824,0.232,2.509,0.856s1.065,1.506,1.065,2.424V326.568z
		 M65.211,265.393c0,1.616-1.163,2.987-2.742,3.268l-10.196,1.75c-0.196,0.037-0.38,0.049-0.563,0.049
		c-0.771,0-1.53-0.281-2.142-0.783c-0.747-0.637-1.175-1.555-1.175-2.534v-29.658c0-1.505,1.016-2.815,2.46-3.207l10.196-2.681
		c0.991-0.257,2.056-0.049,2.852,0.587c0.808,0.625,1.285,1.591,1.285,2.62v30.587H65.211z M65.211,204.23
		c0,1.408-0.881,2.656-2.215,3.121l-10.184,3.599c-0.355,0.135-0.734,0.196-1.102,0.196c-0.685,0-1.346-0.208-1.909-0.612
		c-0.881-0.625-1.396-1.628-1.396-2.705v-29.658c0-1.297,0.759-2.497,1.971-3.023l10.184-4.517c1.028-0.44,2.216-0.354,3.146,0.245
		c0.942,0.612,1.505,1.665,1.505,2.778V204.23z M65.211,143.079c0,1.224-0.673,2.337-1.75,2.913l-10.184,5.435
		c-0.49,0.257-1.028,0.379-1.554,0.379c-0.6,0-1.188-0.159-1.714-0.465c-0.991-0.6-1.604-1.677-1.604-2.827v-29.658
		c0-1.138,0.588-2.203,1.555-2.815l10.196-6.353c1.028-0.636,2.301-0.673,3.354-0.085c1.052,0.587,1.701,1.689,1.701,2.889V143.079z
		 M99.973,461.661c0,1.09-0.526,2.105-1.408,2.718c-0.563,0.392-1.236,0.6-1.885,0.6c-0.392,0-0.771-0.073-1.151-0.208l-12.35-4.541
		c-1.297-0.478-2.167-1.726-2.167-3.109v-32.595c0-1.028,0.478-2.008,1.297-2.632c0.808-0.624,1.885-0.82,2.876-0.551l12.362,3.428
		c1.42,0.392,2.412,1.701,2.412,3.182v33.709H99.973z M99.973,394.243c0,0.979-0.441,1.91-1.2,2.547
		c-0.6,0.489-1.346,0.759-2.105,0.759c-0.208,0-0.416-0.024-0.612-0.062l-12.362-2.313C82.126,394.88,81,393.509,81,391.918v-32.595
		c0-0.931,0.392-1.824,1.077-2.448c0.698-0.624,1.628-0.931,2.546-0.845l12.35,1.212c1.702,0.171,2.987,1.591,2.987,3.305v33.696
		H99.973z M99.973,326.813c0,0.881-0.343,1.738-0.979,2.35c-0.612,0.612-1.457,0.955-2.313,0.955c-0.013,0-0.025,0-0.037,0
		l-12.35-0.098c-1.812-0.013-3.268-1.481-3.268-3.305v-32.62c0-1.713,1.31-3.146,3.023-3.28l12.362-1.016
		c0.918-0.086,1.824,0.232,2.509,0.856c0.686,0.625,1.065,1.506,1.065,2.424v33.733H99.973z M99.973,259.396
		c0,1.604-1.163,2.987-2.742,3.256l-12.363,2.142c-0.184,0.037-0.367,0.049-0.563,0.049c-0.771,0-1.53-0.269-2.129-0.771
		c-0.747-0.637-1.175-1.555-1.175-2.534v-32.595c0-1.505,1.004-2.803,2.46-3.194l12.35-3.256c0.991-0.257,2.056-0.049,2.852,0.587
		c0.808,0.624,1.297,1.591,1.297,2.619v33.697H99.973z M99.973,191.965c0,1.408-0.881,2.656-2.203,3.121l-12.363,4.358
		c-0.355,0.122-0.722,0.196-1.102,0.196c-0.673,0-1.334-0.221-1.909-0.612c-0.869-0.624-1.383-1.628-1.383-2.705v-32.595
		c0-1.322,0.759-2.497,1.958-3.023l12.35-5.471c1.028-0.453,2.215-0.355,3.146,0.245c0.943,0.612,1.506,1.665,1.506,2.778V191.965z
		 M99.973,124.547c0,1.224-0.673,2.338-1.75,2.913l-12.362,6.585c-0.49,0.257-1.016,0.379-1.555,0.379
		c-0.587,0-1.187-0.159-1.701-0.465c-0.992-0.6-1.604-1.677-1.604-2.827V98.525c0-1.139,0.587-2.203,1.555-2.803l12.35-7.699
		c1.04-0.625,2.313-0.661,3.366-0.074c1.053,0.576,1.702,1.689,1.702,2.889V124.547z M142.666,477.365
		c0,1.09-0.526,2.105-1.408,2.718c-0.575,0.392-1.236,0.6-1.897,0.6c-0.379,0-0.759-0.073-1.138-0.208l-15.276-5.618
		c-1.297-0.478-2.167-1.726-2.167-3.109v-36.182c0-1.027,0.478-1.994,1.298-2.631c0.82-0.625,1.885-0.82,2.876-0.551l15.276,4.247
		c1.432,0.392,2.423,1.701,2.423,3.183v37.552H142.666z M142.666,402.249c0,0.991-0.44,1.921-1.199,2.546
		c-0.6,0.501-1.347,0.759-2.118,0.759c-0.208,0-0.404-0.024-0.612-0.062l-15.276-2.864c-1.554-0.281-2.693-1.652-2.693-3.256
		v-36.169c0-0.931,0.392-1.824,1.089-2.448c0.686-0.637,1.616-0.93,2.534-0.845l15.276,1.493c1.701,0.172,2.986,1.592,2.986,3.293
		v37.553H142.666z M142.666,327.144c0,0.882-0.343,1.738-0.979,2.351c-0.625,0.612-1.457,0.955-2.326,0.955c0,0-0.012,0-0.024,0
		l-15.275-0.123c-1.812-0.012-3.281-1.48-3.281-3.305v-36.193c0-1.727,1.31-3.158,3.036-3.306l15.263-1.248
		c0.943-0.085,1.836,0.221,2.521,0.856c0.673,0.625,1.065,1.506,1.065,2.424V327.144L142.666,327.144z M142.666,252.015
		c0,1.616-1.163,2.987-2.754,3.269l-15.263,2.631c-0.196,0.037-0.379,0.049-0.575,0.049c-0.759,0-1.53-0.257-2.13-0.771
		c-0.747-0.624-1.175-1.555-1.175-2.521V218.49c0-1.506,1.004-2.815,2.46-3.207l15.275-4.002c0.992-0.257,2.044-0.049,2.852,0.575
		c0.808,0.637,1.297,1.591,1.297,2.619v37.54H142.666z M142.666,176.91c0,1.396-0.881,2.656-2.215,3.121l-15.275,5.386
		c-0.355,0.123-0.734,0.196-1.102,0.196c-0.673,0-1.334-0.22-1.897-0.612c-0.881-0.625-1.396-1.628-1.396-2.705v-36.182
		c0-1.297,0.759-2.497,1.958-3.023l15.276-6.769c1.028-0.453,2.215-0.355,3.146,0.245c0.942,0.612,1.505,1.665,1.505,2.778V176.91z
		 M142.666,101.793c0,1.224-0.673,2.338-1.762,2.913l-15.276,8.14c-0.477,0.257-1.016,0.392-1.554,0.392
		c-0.588,0-1.175-0.159-1.702-0.478c-0.991-0.6-1.604-1.677-1.604-2.827V73.739c0-1.138,0.588-2.203,1.555-2.815l15.275-9.51
		c1.016-0.636,2.313-0.673,3.354-0.085c1.04,0.587,1.701,1.689,1.701,2.889v37.577H142.666z M223.805,476.252
		c0,1.615-1.175,2.986-2.766,3.268l-35.251,5.974c-0.196,0.024-0.367,0.049-0.551,0.049c-0.771,0-1.542-0.27-2.142-0.783
		c-0.747-0.625-1.175-1.543-1.175-2.521v-38.752c0-1.665,1.236-3.061,2.876-3.269l35.263-4.504c0.93-0.135,1.885,0.171,2.607,0.783
		c0.722,0.637,1.126,1.53,1.126,2.484v37.271H223.805z M223.805,401.686c0,1.714-1.31,3.146-3.023,3.28l-35.263,3.048
		c-0.098,0.013-0.196,0.013-0.282,0.013c-0.82,0-1.628-0.294-2.24-0.857c-0.686-0.637-1.077-1.518-1.077-2.436v-38.446
		c0-1.774,1.383-3.231,3.158-3.305l35.264-1.604c0.918-0.049,1.774,0.282,2.423,0.906c0.661,0.624,1.028,1.493,1.028,2.387v37.014
		H223.805z M223.805,327.119c0,1.824-1.481,3.306-3.305,3.317l-35.251,0.122c-0.012,0-0.012,0-0.012,0
		c-0.881,0-1.726-0.343-2.338-0.967c-0.624-0.612-0.967-1.456-0.967-2.325v-38.765c0-0.894,0.367-1.75,1.016-2.374
		c0.649-0.625,1.518-0.955,2.412-0.918l35.263,1.334c1.775,0.061,3.183,1.518,3.183,3.293V327.119z M223.805,252.541
		c0,0.918-0.379,1.812-1.065,2.424c-0.625,0.563-1.42,0.881-2.252,0.881c-0.086,0-0.171-0.012-0.257-0.012l-35.251-2.803
		c-1.726-0.135-3.048-1.567-3.048-3.305v-38.74c0-0.942,0.404-1.848,1.114-2.473c0.71-0.636,1.652-0.93,2.595-0.808l35.251,4.272
		c1.665,0.208,2.913,1.616,2.913,3.28V252.541L223.805,252.541z M223.805,177.975c0,0.979-0.429,1.897-1.175,2.521
		c-0.6,0.514-1.358,0.795-2.142,0.795c-0.184,0-0.343-0.012-0.526-0.037l-35.264-5.741c-1.604-0.257-2.778-1.64-2.778-3.268v-38.739
		c0-1.004,0.44-1.934,1.224-2.571c0.759-0.624,1.762-0.869,2.754-0.685l35.251,7.197c1.542,0.318,2.656,1.677,2.656,3.244V177.975z
		 M223.805,103.409c0,1.016-0.465,1.971-1.273,2.607c-0.587,0.453-1.322,0.71-2.044,0.71c-0.257,0-0.526-0.037-0.784-0.098
		l-35.251-8.653c-1.481-0.367-2.521-1.702-2.521-3.219V55.991c0-1.041,0.49-2.007,1.31-2.644c0.833-0.625,1.897-0.82,2.901-0.539
		l35.251,10.123c1.419,0.404,2.399,1.702,2.399,3.183v37.295H223.805z M286.89,465.566c0,1.615-1.175,2.986-2.766,3.268
		l-30.392,5.153c-0.184,0.024-0.367,0.037-0.551,0.037c-0.771,0-1.53-0.258-2.13-0.771c-0.747-0.624-1.187-1.555-1.187-2.521
		v-35.937c0-1.665,1.236-3.072,2.888-3.28l30.392-3.893c0.942-0.122,1.885,0.184,2.607,0.796c0.71,0.636,1.126,1.529,1.126,2.484
		v34.664H286.89z M286.89,396.239c0,1.713-1.31,3.146-3.023,3.28l-30.392,2.631c-0.098,0.013-0.196,0.013-0.282,0.013
		c-0.82,0-1.628-0.306-2.24-0.869c-0.686-0.624-1.077-1.506-1.077-2.436v-35.912c0-1.775,1.395-3.231,3.17-3.317l30.392-1.358
		c0.881-0.062,1.787,0.281,2.423,0.905c0.661,0.637,1.028,1.493,1.028,2.387V396.239z M286.89,326.899
		c0,1.812-1.481,3.305-3.305,3.316l-30.392,0.099h-0.012c-0.869,0-1.714-0.331-2.338-0.955s-0.979-1.469-0.979-2.338v-35.949
		c0-0.894,0.367-1.762,1.016-2.374c0.649-0.625,1.53-0.968,2.424-0.918l30.379,1.15c1.787,0.073,3.195,1.53,3.195,3.317v34.651
		H286.89z M286.89,257.56c0,0.918-0.392,1.799-1.065,2.423c-0.625,0.563-1.42,0.869-2.252,0.869c-0.085,0-0.184,0-0.269-0.012
		l-30.392-2.411c-1.726-0.135-3.047-1.567-3.047-3.305v-35.9c0-0.955,0.404-1.849,1.126-2.473c0.71-0.637,1.64-0.93,2.583-0.808
		l30.392,3.685c1.665,0.208,2.913,1.604,2.913,3.28v34.651H286.89z M286.89,188.22c0,0.967-0.429,1.885-1.175,2.521
		c-0.6,0.514-1.358,0.784-2.142,0.784c-0.184,0-0.354-0.012-0.526-0.049l-30.392-4.933c-1.604-0.257-2.791-1.652-2.791-3.268
		v-35.937c0-0.992,0.453-1.934,1.224-2.558c0.759-0.624,1.787-0.881,2.754-0.686l30.392,6.206c1.542,0.306,2.656,1.665,2.656,3.244
		V188.22z M286.89,118.893c0,1.016-0.465,1.971-1.261,2.595c-0.6,0.465-1.322,0.71-2.044,0.71c-0.27,0-0.526-0.024-0.796-0.098
		l-30.392-7.454c-1.481-0.355-2.521-1.689-2.521-3.219V75.502c0-1.041,0.489-2.02,1.322-2.644c0.82-0.624,1.897-0.82,2.889-0.539
		l30.392,8.727c1.419,0.404,2.399,1.702,2.399,3.183v34.664H286.89z M341.7,456.276c0,1.615-1.162,2.986-2.754,3.268l-26.475,4.479
		c-0.195,0.037-0.367,0.05-0.562,0.05c-0.76,0-1.531-0.27-2.131-0.771c-0.746-0.637-1.174-1.555-1.174-2.533v-33.489
		c0-1.664,1.236-3.06,2.875-3.28l26.477-3.378c0.941-0.123,1.885,0.171,2.605,0.783c0.723,0.637,1.127,1.542,1.127,2.484v32.388
		H341.7z M341.7,391.489c0,1.727-1.309,3.146-3.023,3.293l-26.475,2.289c-0.098,0.012-0.195,0.012-0.293,0.012
		c-0.82,0-1.617-0.306-2.24-0.869c-0.686-0.624-1.064-1.505-1.064-2.423v-33.489c0-1.762,1.383-3.23,3.158-3.305l26.475-1.188
		c0.893-0.049,1.787,0.282,2.424,0.906c0.66,0.624,1.027,1.493,1.027,2.387v32.387H341.7z M341.7,326.703
		c0,1.824-1.469,3.293-3.305,3.317l-26.475,0.086c0,0,0,0-0.012,0c-0.869,0-1.715-0.343-2.326-0.955
		c-0.625-0.624-0.967-1.469-0.967-2.338v-33.501c0-0.894,0.355-1.763,1.016-2.374c0.648-0.625,1.506-0.955,2.412-0.918l26.475,1.003
		c1.762,0.062,3.182,1.53,3.182,3.293V326.703z M341.7,261.917c0,0.918-0.379,1.812-1.064,2.436
		c-0.611,0.563-1.408,0.869-2.252,0.869c-0.086,0-0.172,0-0.258-0.012l-26.475-2.105c-1.713-0.147-3.035-1.579-3.035-3.293v-33.488
		c0-0.942,0.404-1.836,1.113-2.473c0.711-0.624,1.652-0.918,2.596-0.795l26.463,3.207c1.664,0.196,2.912,1.604,2.912,3.28V261.917z
		 M341.7,197.131c0,0.979-0.428,1.897-1.162,2.521c-0.611,0.514-1.371,0.783-2.154,0.783c-0.172,0-0.342-0.012-0.525-0.049
		l-26.477-4.309c-1.604-0.257-2.777-1.64-2.777-3.268v-33.477c0-1.003,0.439-1.934,1.211-2.57c0.783-0.625,1.787-0.869,2.766-0.673
		l26.477,5.386c1.529,0.318,2.643,1.677,2.643,3.244V197.131z M341.7,132.344c0,1.016-0.465,1.983-1.271,2.607
		c-0.588,0.465-1.299,0.71-2.045,0.71c-0.258,0-0.525-0.037-0.783-0.098l-26.475-6.5c-1.469-0.355-2.51-1.689-2.51-3.207V92.356
		c0-1.041,0.49-2.02,1.309-2.644c0.82-0.612,1.898-0.82,2.902-0.539l26.475,7.613c1.408,0.404,2.387,1.701,2.387,3.183v32.375H341.7
		z M451.702,493.302c0,1.518-1.029,2.828-2.498,3.207l-85.215,21.518c-0.256,0.062-0.537,0.099-0.795,0.099
		c-0.734,0-1.445-0.245-2.031-0.698c-0.809-0.637-1.273-1.591-1.273-2.619V326.63c0-0.33,0.514-34.737,48.617-32.926
		c42.717,1.592,43.207,32.313,43.207,32.632v166.966H451.702z M487.491,431.588c0,1.615-1.176,2.986-2.754,3.256l-17.393,2.95
		c-0.195,0.036-0.367,0.049-0.562,0.049c-0.771,0-1.531-0.27-2.131-0.771c-0.746-0.648-1.176-1.566-1.176-2.546v-27.062
		c0-1.665,1.236-3.072,2.877-3.28l17.406-2.24c0.941-0.122,1.885,0.184,2.607,0.796c0.709,0.637,1.125,1.53,1.125,2.484V431.588
		L487.491,431.588z M487.491,378.895c0,1.714-1.309,3.146-3.023,3.28l-17.404,1.506c-0.098,0.012-0.197,0.012-0.281,0.012
		c-0.82,0-1.617-0.306-2.24-0.856c-0.686-0.637-1.066-1.518-1.066-2.436v-27.075c0-1.763,1.385-3.219,3.158-3.292l17.406-0.784
		c0.893-0.061,1.787,0.282,2.424,0.906c0.66,0.624,1.027,1.481,1.027,2.387V378.895z M487.491,325.993
		c0,1.824-1.48,3.305-3.293,3.305l-17.404,0.062c0,0,0,0-0.012,0c-0.869,0-1.715-0.343-2.326-0.967
		c-0.625-0.624-0.967-1.457-0.967-2.338v-26.843c0-0.894,0.354-1.75,1.004-2.387c0.648-0.624,1.518-0.954,2.424-0.918l17.393,0.674
		c1.773,0.061,3.193,1.518,3.193,3.305v26.107H487.491z M487.491,273.508c0,0.918-0.391,1.812-1.064,2.423
		c-0.625,0.576-1.42,0.881-2.252,0.881c-0.086,0-0.184-0.012-0.258-0.012l-17.404-1.383c-1.715-0.135-3.037-1.567-3.037-3.305
		V245.05c0-0.942,0.404-1.836,1.115-2.473c0.709-0.624,1.652-0.93,2.582-0.795l17.406,2.105c1.664,0.196,2.912,1.603,2.912,3.28
		V273.508L487.491,273.508z M487.491,220.827c0,0.967-0.428,1.885-1.176,2.521c-0.6,0.514-1.357,0.784-2.141,0.784
		c-0.184,0-0.355-0.012-0.527-0.049l-17.404-2.815c-1.604-0.257-2.779-1.652-2.779-3.268v-27.075c0-0.991,0.441-1.921,1.213-2.558
		c0.77-0.624,1.787-0.869,2.766-0.685l17.393,3.549c1.543,0.318,2.656,1.677,2.656,3.244V220.827z M487.491,168.134
		c0,1.016-0.465,1.983-1.26,2.607c-0.6,0.465-1.311,0.71-2.045,0.71c-0.258,0-0.525-0.024-0.783-0.098l-17.418-4.272
		c-1.469-0.367-2.51-1.702-2.51-3.219V136.8c0-1.041,0.479-2.02,1.322-2.644c0.82-0.624,1.898-0.82,2.902-0.539l17.393,4.994
		c1.42,0.404,2.398,1.701,2.398,3.182V168.134z M519.645,426.129c0,1.615-1.174,2.986-2.766,3.256l-15.654,2.668
		c-0.184,0.024-0.367,0.037-0.551,0.037c-0.771,0-1.531-0.257-2.143-0.771c-0.746-0.624-1.176-1.555-1.176-2.521V403.13
		c0-1.665,1.248-3.072,2.889-3.28l15.656-2.008c0.941-0.122,1.885,0.172,2.605,0.809c0.723,0.624,1.127,1.529,1.127,2.472v25.007
		H519.645z M519.645,376.116c0,1.726-1.309,3.146-3.023,3.305l-15.654,1.347c-0.098,0.012-0.195,0.012-0.281,0.012
		c-0.82,0-1.629-0.306-2.24-0.868c-0.686-0.625-1.078-1.506-1.078-2.437v-25.655c0-1.774,1.396-3.23,3.172-3.305l15.654-0.71
		c0.893-0.049,1.787,0.282,2.424,0.906c0.66,0.624,1.027,1.481,1.027,2.387V376.116z M519.645,326.104
		c0,1.812-1.48,3.305-3.305,3.305l-15.654,0.062h-0.012c-0.869,0-1.715-0.343-2.326-0.967c-0.625-0.625-0.98-1.457-0.98-2.338
		v-25.668c0-0.918,0.367-1.774,1.018-2.398c0.648-0.624,1.518-0.955,2.41-0.918l15.668,0.6c1.773,0.073,3.182,1.53,3.182,3.305
		V326.104L519.645,326.104z M519.645,276.066c0,0.918-0.379,1.812-1.064,2.424c-0.611,0.575-1.42,0.881-2.252,0.881
		c-0.086,0-0.172-0.012-0.258-0.012l-15.654-1.236c-1.727-0.147-3.049-1.579-3.049-3.305v-25.667c0-0.943,0.404-1.836,1.127-2.473
		c0.709-0.624,1.652-0.918,2.582-0.795l15.656,1.885c1.664,0.208,2.912,1.616,2.912,3.28V276.066L519.645,276.066z M519.645,226.042
		c0,0.979-0.428,1.897-1.174,2.521c-0.602,0.514-1.359,0.795-2.143,0.795c-0.184,0-0.344-0.012-0.527-0.037l-15.654-2.546
		c-1.604-0.257-2.791-1.652-2.791-3.268v-25.667c0-0.992,0.453-1.934,1.225-2.559c0.758-0.636,1.775-0.881,2.754-0.685l15.654,3.194
		c1.543,0.306,2.656,1.677,2.656,3.244V226.042L519.645,226.042z M519.645,176.029c0,1.016-0.465,1.971-1.273,2.607
		c-0.586,0.453-1.309,0.698-2.043,0.698c-0.258,0-0.527-0.025-0.795-0.098l-15.645-3.831c-1.48-0.355-2.521-1.689-2.521-3.219
		V146.53c0-1.04,0.49-2.02,1.322-2.644c0.82-0.637,1.898-0.82,2.889-0.539l15.656,4.492c1.42,0.404,2.398,1.701,2.398,3.182v25.006
		H519.645z M548.704,421.208c0,1.616-1.176,2.987-2.768,3.269l-14.16,2.387c-0.197,0.037-0.367,0.049-0.551,0.049
		c-0.783,0-1.543-0.257-2.143-0.771c-0.746-0.636-1.176-1.554-1.176-2.521v-24.395c0-1.665,1.236-3.072,2.889-3.28l14.162-1.812
		c0.943-0.123,1.885,0.171,2.607,0.795c0.723,0.625,1.127,1.53,1.127,2.485v23.794H548.704z M548.704,373.595
		c0,1.726-1.311,3.146-3.023,3.305l-14.174,1.225c-0.086,0.012-0.184,0.012-0.27,0.012c-0.82,0-1.629-0.306-2.24-0.869
		c-0.686-0.624-1.076-1.506-1.076-2.436v-24.395c0-1.774,1.383-3.231,3.156-3.305l14.176-0.648c0.881-0.049,1.773,0.294,2.422,0.918
		c0.662,0.624,1.029,1.48,1.029,2.387V373.595z M548.704,325.993c0,1.824-1.482,3.305-3.305,3.317l-14.162,0.049
		c-0.012,0-0.012,0-0.012,0c-0.869,0-1.727-0.343-2.338-0.967c-0.625-0.624-0.967-1.457-0.967-2.338v-24.382
		c0-0.906,0.367-1.763,1.016-2.399c0.648-0.624,1.506-0.955,2.41-0.918l14.174,0.538c1.775,0.074,3.184,1.53,3.184,3.317V325.993
		L548.704,325.993z M548.704,278.38c0,0.93-0.393,1.799-1.064,2.436c-0.625,0.563-1.42,0.869-2.254,0.869
		c-0.084,0-0.184,0-0.256-0.012l-14.162-1.126c-1.727-0.147-3.047-1.579-3.047-3.305v-24.395c0-0.942,0.402-1.836,1.113-2.473
		c0.709-0.624,1.652-0.918,2.594-0.808l14.162,1.713c1.666,0.208,2.914,1.616,2.914,3.28V278.38z M548.704,230.778
		c0,0.967-0.43,1.885-1.176,2.509c-0.6,0.514-1.357,0.783-2.143,0.783c-0.184,0-0.354-0.012-0.525-0.037l-14.174-2.301
		c-1.604-0.257-2.766-1.653-2.766-3.269v-24.394c0-0.992,0.439-1.922,1.223-2.558c0.771-0.625,1.787-0.869,2.754-0.686l14.162,2.889
		c1.543,0.306,2.656,1.677,2.656,3.244v23.819H548.704z M548.704,183.165c0,1.016-0.465,1.971-1.273,2.595
		c-0.588,0.465-1.311,0.71-2.045,0.71c-0.256,0-0.525-0.024-0.783-0.098l-14.16-3.476c-1.482-0.355-2.521-1.689-2.521-3.207v-24.394
		c0-1.041,0.488-2.02,1.309-2.644c0.832-0.624,1.91-0.82,2.9-0.539l14.162,4.064c1.42,0.404,2.398,1.713,2.398,3.182v23.807H548.704
		z"/>
</g>
<g>
</g>
<g>
</g>
<g>
</g>
<g>
</g>
<g>
</g>
<g>
</g>
<g>
</g>
<g>
</g>
<g>
</g>
<g>
</g>
<g>
</g>
<g>
</g>
<g>
</g>
<g>
</g>
<g>
</g>
</svg>
